<svg xmlns="http://www.w3.org/2000/svg" width="77" height="54.824" viewBox="0 0 77 54.824">
  <g id="Logo-TZ" transform="translate(-287.792 -197)">
    <path id="Path_50" data-name="Path 50" d="M313.184,241.126l1.844-.683c.041-1.912-1.534-3.74.329-5.7.088,1.929.165,3.617.256,5.63a11.437,11.437,0,0,0,2.963-1.224c.279-.22-.181-1.38-.363-2.465a27.748,27.748,0,0,0,2.64-2.412,7.642,7.642,0,0,0,.912-2.193l2.787.73c-1.94.872-1.683,2.392-1.67,3.874,2.237-1.283,2.666-2.159,2.4-4.57q-1.812-16.26-3.6-32.523a5.813,5.813,0,0,1-.1-1.585c.064-.363.435-.672.668-1.006.347.3.958.575,1,.914.21,1.8.233,3.628.4,5.437q1.372,14.634,2.788,29.265a.758.758,0,0,0,.059.273l3.937,1.5V230.56l.539-.065a7.719,7.719,0,0,1,.332,2.639,1.853,1.853,0,0,0,1.179,2.5,4.443,4.443,0,0,0,1.435.548c-.51-1.058-1.029-2.112-1.527-3.175-.905-1.932-2.251-3.664-2.526-5.882-.229-1.844-.3-3.516,1.361-4.913a6.334,6.334,0,0,0,1.26-2.618,21.988,21.988,0,0,0,.6-2.287l4.37,4.508c-.556.517-1.358,1.3-2.2,2.034-1.028.9-.679,1.794-.058,2.706a11.679,11.679,0,0,0,9.59,4.68,6.291,6.291,0,0,1-1.354.724c-1.175.231-1.259.932-1.086,1.945.321,1.878.462,3.787.823,5.656a3.736,3.736,0,0,0,1.057,1.911,11.111,11.111,0,0,0,3,2.164c1.758.755,3.658,1.174,5.474,1.8a16.159,16.159,0,0,1,2.105,1.035,13.089,13.089,0,0,0,2.629,1.358,19.65,19.65,0,0,1,6.638,3.246,4.59,4.59,0,0,0,.7.341l-.252.412H287.792a10.3,10.3,0,0,1,1.855-1.112c1.559-.491,3.168-.821,4.729-1.306,2.692-.836,5.392-1.662,8.033-2.642,2.212-.82,3.07-2.312,2.54-4.853-.328-1.575-.179-3.03-2.1-3.641a1.814,1.814,0,0,1-.7-1.6c.106-.505.822-.883,1.271-1.316l.314.307c-.041.092-.065.249-.126.265-.742.2-1.12.623-.706,1.355a1.144,1.144,0,0,0,1.813.424c1.982-1.552,3.994-3.087,5.819-4.814,1.459-1.381,1.266-2.709-.284-4.473l5.69-2.892c.027.711.11,1.455.068,2.191-.052.915-.31,1.826-.3,2.737a10.9,10.9,0,0,1-1.08,4.846C313.865,236.971,313.7,238.92,313.184,241.126Zm-6.107.438.447,1.776c1.452-.56,2.9-1.082,4.306-1.684.37-.158.9-.56.9-.856a23.815,23.815,0,0,0-.275-2.926c-1.671,1.042-3.28,2.031-4.87,3.053-.215.138-.327.435-.5.648-.292.146-.8.251-.839.445a23.485,23.485,0,0,0-.23,2.515l.513.1c.088-.408.188-.813.26-1.223C306.9,242.8,306.982,242.18,307.077,241.564Zm33.732-2.407,1.673.535a14.669,14.669,0,0,1-.415-1.762c-.159-1.633-.768-2.689-2.65-2.76a5.513,5.513,0,0,1-2.33-.909c-1.189-.682-2.31-1.483-3.6-2.325a33.228,33.228,0,0,0,1.082,4.322,3.687,3.687,0,0,0,1.742,2.009,17.575,17.575,0,0,0,3.885.61l.151-3.073h.438C341.636,236.8,340.466,237.918,340.81,239.158Zm-21.714-.6.3.333c.9-.813,3.29-.127,2.527-2.657Z" transform="translate(0 0)" fill="#fff"/>
    <path id="Path_51" data-name="Path 51" d="M524.386,203.715c5.087-.231,9.532.758,13.343,3.941a23.142,23.142,0,0,0,7.617,4.3,11.16,11.16,0,0,0,7.613.191c.147,2.507.588,4.849,2.4,6.643-4.076,3.412-13.641,4.547-17.114,2.242a20.822,20.822,0,0,0,.824-3.314,11.953,11.953,0,0,0-.372-3.482v4.736a18.6,18.6,0,0,0-12.857.978Z" transform="translate(-199.985 -5.677)" fill="#fff"/>
  </g>
</svg>
